HIERARCHY
ROOT hip
{
	OFFSET 0.000000 0.000000 0.000000
	CHANNELS 6 Xposition Yposition Zposition Xrotation Zrotation Yrotation 
	JOINT abdomen
	{
		OFFSET 0.000000 3.422050 0.000000
		CHANNELS 3 Xrotation Zrotation Yrotation 
		JOINT chest
		{
			OFFSET 0.000000 8.486693 -0.684411
			CHANNELS 3 Xrotation Zrotation Yrotation 
			JOINT neck
			{
				OFFSET 0.000000 10.266162 -0.273764
				CHANNELS 3 Xrotation Zrotation Yrotation 
				JOINT head
				{
					OFFSET 0.000000 3.148285 0.000000
					CHANNELS 3 Xrotation Zrotation Yrotation 
					End Site
					{
						OFFSET 0.000000 3.148289 0.000000
					}
				}
			}
			JOINT lCollar
			{
				OFFSET 3.422053 6.707223 -0.821293
				CHANNELS 3 Yrotation Zrotation Xrotation 
				JOINT lShldr
				{
					OFFSET 3.285171 0.000000 0.000000
					CHANNELS 3 Zrotation Yrotation Xrotation 
					JOINT lForeArm
					{
						OFFSET 10.129278 0.000000 0.000000
						CHANNELS 3 Yrotation Zrotation Xrotation 
						JOINT lHand
						{
							OFFSET 8.486692 0.000000 0.000000
							CHANNELS 3 Zrotation Yrotation Xrotation 
							End Site
							{
								OFFSET 4.106464 0.000000 0.000000
							}
						}
					}
				}
			}
			JOINT rCollar
			{
				OFFSET -3.558935 6.707223 -0.821293
				CHANNELS 3 Yrotation Zrotation Xrotation 
				JOINT rShldr
				{
					OFFSET -3.148289 0.000000 0.000000
					CHANNELS 3 Zrotation Yrotation Xrotation 
					JOINT rForeArm
					{
						OFFSET -10.266159 0.000000 0.000000
						CHANNELS 3 Yrotation Zrotation Xrotation 
						JOINT rHand
						{
							OFFSET -8.349810 0.000000 0.000000
							CHANNELS 3 Zrotation Yrotation Xrotation 
							End Site
							{
								OFFSET -4.106464 0.000000 0.000000
							}
						}
					}
				}
			}
		}
	}
	JOINT lThigh
	{
		OFFSET 5.338403 -1.642589 1.368821
		CHANNELS 3 Xrotation Zrotation Yrotation 
		JOINT lShin
		{
			OFFSET -2.053232 -20.121670 0.000000
			CHANNELS 3 Xrotation Zrotation Yrotation 
			JOINT lFoot
			{
				OFFSET 0.000000 -19.300380 -1.231939
				CHANNELS 3 Xrotation Yrotation Zrotation 
				End Site
				{
					OFFSET 0.000000 -2.463878 4.653993
				}
			}
		}
	}
	JOINT rThigh
	{
		OFFSET -5.338403 -1.642589 1.368821
		CHANNELS 3 Xrotation Zrotation Yrotation 
		JOINT rShin
		{
			OFFSET 2.053232 -20.121670 0.000000
			CHANNELS 3 Xrotation Zrotation Yrotation 
			JOINT rFoot
			{
				OFFSET 0.000000 -19.300380 -1.231939
				CHANNELS 3 Xrotation Yrotation Zrotation 
				End Site
				{
					OFFSET 0.000000 -2.463878 4.653993
				}
			}
		}
	}
}
MOTION
Frames: 10
Frame Time: 0.049989
0.000000 11.998247 -8.004953 3.999748 0.000000 0.000000 70.911392 -21.998871 8.997561 17.164646 5.999352 -0.002975 -46.003506 -0.002897 16.902613 18.289061 -0.000375 -31.003134 -8.825189 3.098724 -4.906996 105.003250 -33.649109 -60.005753 -8.246658 0.000000 0.000000 0.915319 1.766253 -48.975266 0.000000 0.000000 -10.002190 -93.997459 52.865822 -149.996582 15.999964 4.998787 19.997726 -10.000539 4.998592 29.998749 -61.999828 19.999102 -29.999998 139.991013 0.000000 0.000000 66.999611 0.000001 -0.000001 -62.001255 -20.003736 29.999212 139.991013 0.000000 0.000000 66.999611 0.000001 -0.000001 
0.000000 11.998247 -8.004953 3.999748 0.000000 0.000000 71.259193 -21.998827 8.997640 17.116596 5.999354 -0.002978 -46.003452 -0.002969 15.804895 17.577211 -0.000524 -31.003046 -9.353116 3.255980 -4.592742 105.002518 -33.040215 -60.005001 -7.202526 0.000000 0.000000 0.743927 1.141078 -49.652840 0.000000 0.000000 -10.002190 -93.997505 52.387516 -149.996643 15.999964 4.998787 19.997726 -10.000537 4.998592 29.998745 -61.999828 19.999102 -29.999998 139.991013 0.000000 0.000000 66.999611 0.000001 -0.000001 -62.001255 -20.003736 29.999212 139.991013 0.000000 0.000000 66.999611 0.000001 -0.000001 
0.000000 11.998247 -8.004953 3.999748 0.000000 0.000000 71.606956 -21.998789 8.997717 17.068548 5.999357 -0.002981 -46.003387 -0.003038 14.704716 16.864698 -0.000672 -31.002964 -9.881783 3.410280 -4.277124 105.001785 -32.431526 -60.004238 -6.159523 0.000000 0.000000 0.580106 0.514466 -50.327831 0.000000 0.000000 -10.002190 -93.997543 51.909325 -149.996674 15.999964 4.998787 19.997726 -10.000538 4.998592 29.998749 -61.999828 19.999102 -29.999998 139.991013 0.000000 0.000000 66.999611 0.000001 -0.000001 -62.001255 -20.003736 29.999212 139.991013 0.000000 0.000000 66.999611 0.000001 -0.000001 
0.000000 11.998247 -8.004953 3.999748 0.000000 0.000000 71.954674 -21.998747 8.997795 17.020494 5.999360 -0.002984 -46.003334 -0.003107 13.602278 16.151577 -0.000818 -31.002882 -10.411149 3.561596 -3.960178 105.001083 -31.823105 -60.003506 -5.117820 0.000000 0.000000 0.423836 -0.113401 -51.000362 0.000000 0.000000 -10.002190 -93.997589 51.431267 -149.996735 15.999964 4.998786 19.997725 -10.000539 4.998592 29.998749 -61.999828 19.999102 -29.999998 139.991013 0.000000 0.000000 66.999611 0.000001 -0.000001 -62.001255 -20.003736 29.999212 139.991013 0.000000 0.000000 66.999611 0.000001 -0.000001 
0.000000 11.998247 -8.004953 3.999748 0.000000 0.000000 72.302330 -21.998703 8.997870 16.972445 5.999363 -0.002987 -46.003273 -0.003174 12.497772 15.437898 -0.000964 -31.002789 -10.941171 3.709909 -3.641952 105.000374 -31.214979 -60.002781 -4.077585 0.000000 0.000000 0.275099 -0.742345 -51.670448 0.000000 0.000000 -10.002190 -93.997650 50.953358 -149.996796 15.999964 4.998787 19.997726 -10.000537 4.998592 29.998745 -61.999828 19.999102 -29.999998 139.991013 0.000000 0.000000 66.999611 0.000001 -0.000001 -62.001255 -20.003736 29.999212 139.991013 0.000000 0.000000 66.999611 0.000001 -0.000001 
0.000000 11.998247 -8.004953 3.999748 0.000000 0.000000 72.649925 -21.998665 8.997953 16.924393 5.999366 -0.002990 -46.003208 -0.003241 11.391400 14.723722 -0.001110 -31.002707 -11.471802 3.855194 -3.322488 104.999687 -30.607174 -60.002071 -3.038989 0.000000 0.000000 0.133873 -1.372186 -52.338211 0.000000 0.000000 -10.002190 -93.997696 50.475590 -149.996857 15.999964 4.998786 19.997725 -10.000538 4.998592 29.998749 -61.999828 19.999102 -29.999998 139.991013 0.000000 0.000000 66.999611 0.000001 -0.000001 -62.001255 -20.003736 29.999212 139.991013 0.000000 0.000000 66.999611 0.000001 -0.000001 
0.000000 11.998247 -8.004953 3.999748 0.000000 0.000000 72.997452 -21.998623 8.998032 16.876337 5.999369 -0.002993 -46.003143 -0.003306 10.283364 14.009096 -0.001254 -31.002611 -12.003003 3.997432 -3.001831 104.999008 -29.999727 -60.001369 -2.002196 0.000000 0.000000 0.000137 -2.002748 -53.003700 0.000000 0.000000 -10.002190 -93.997749 49.998013 -149.996902 15.999964 4.998787 19.997726 -10.000539 4.998592 29.998749 -61.999828 19.999102 -29.999998 139.991013 0.000000 0.000000 66.999611 0.000001 -0.000001 -62.001255 -20.003736 29.999212 139.991013 0.000000 0.000000 66.999611 0.000001 -0.000001 
0.000000 11.998247 -8.004953 3.999748 0.000000 0.000000 72.616837 -21.998671 8.997944 16.828285 5.999372 -0.002996 -46.003094 -0.003370 9.173871 13.294084 -0.001397 -31.002525 -11.421239 3.841488 -3.352965 104.999756 -30.665039 -60.002140 -3.137828 0.000000 0.000000 0.147000 -1.312167 -52.274723 0.000000 0.000000 -10.002190 -93.997696 50.521095 -149.996841 15.999964 4.998787 19.997728 -10.000538 4.998592 29.998749 -61.999828 19.999102 -29.999998 139.991013 0.000000 0.000000 66.999611 0.000001 -0.000001 -62.001255 -20.003736 29.999212 139.991013 0.000000 0.000000 66.999611 0.000001 -0.000001 
0.000000 11.998247 -8.004953 3.999748 0.000000 0.000000 72.236107 -21.998711 8.997858 16.780233 5.999375 -0.002999 -46.003021 -0.003433 8.063120 12.578734 -0.001539 -31.002424 -10.840165 3.681892 -3.702663 105.000496 -31.330786 -60.002911 -4.275605 0.000000 0.000000 0.302850 -0.622471 -51.543011 0.000000 0.000000 -10.002190 -93.997635 51.044373 -149.996796 15.999964 4.998787 19.997726 -10.000537 4.998592 29.998745 -61.999828 19.999102 -29.999998 139.991013 0.000000 0.000000 66.999611 0.000001 -0.000001 -62.001255 -20.003736 29.999212 139.991013 0.000000 0.000000 66.999611 0.000001 -0.000001 
0.000000 11.998247 -8.004953 3.999748 0.000000 0.000000 71.855331 -21.998756 8.997771 16.732176 5.999377 -0.003002 -46.002953 -0.003495 6.951322 11.863107 -0.001679 -31.002331 -10.259834 3.518669 -4.050867 105.001274 -31.996912 -60.003712 -5.415307 0.000000 0.000000 0.467715 0.066107 -50.808464 0.000000 0.000000 -10.002190 -93.997589 51.567852 -149.996735 15.999964 4.998787 19.997726 -10.000539 4.998592 29.998749 -61.999828 19.999102 -29.999998 139.991013 0.000000 0.000000 66.999611 0.000001 -0.000001 -62.001255 -20.003736 29.999212 139.991013 0.000000 0.000000 66.999611 0.000001 -0.000001 
